<svg width="24" height="24" viewBox="0 0 24 24" fill="none" xmlns="http://www.w3.org/2000/svg">
<rect width="24" height="24" rx="12" fill="url(#paint0_linear_9487_37409)"/>
<g clip-path="url(#clip0_9487_37409)">
<path d="M8.39689 7.86104C10.6713 6.24812 13.9199 6.37995 16.0228 8.17312C18.1619 9.99837 18.4541 12.9786 16.6948 15.1136C15.0376 17.1244 12.0486 17.787 9.56005 16.7499L9.42414 16.691L6.87264 17.234L6.8493 17.2375L6.82889 17.2416H6.81839L6.80555 17.2445H6.78339L6.76414 17.2469L6.75189 17.2463L6.73847 17.2469L6.71922 17.2451H6.6988L6.68597 17.2428L6.67314 17.2416L6.65272 17.2375L6.63289 17.2346L6.62355 17.2323L6.60955 17.2294L6.58097 17.22L6.56697 17.2171L6.56055 17.2142L6.54772 17.2101L6.52147 17.1985L6.50397 17.1915L6.49755 17.188L6.48939 17.1845L6.4713 17.174L6.44505 17.16L6.43572 17.1535L6.41414 17.1384L6.3908 17.1226L6.38964 17.1203L6.38205 17.115L6.35697 17.0917L6.34239 17.08L6.33889 17.076L6.30622 17.0398L6.29864 17.0316L6.29222 17.0235L6.26947 16.9908L6.2613 16.9797L6.25839 16.9739L6.23389 16.9313L6.2298 16.9243L6.22747 16.9196L6.22339 16.9126L6.21522 16.8905L6.20355 16.866L6.20122 16.8566L6.19889 16.8508L6.18897 16.8152L6.18489 16.8047L6.18372 16.796L6.1808 16.7849L6.17789 16.7656L6.17322 16.7411L6.17205 16.723L6.1703 16.7172V16.7079L6.16797 16.6764L6.16855 16.6554L6.16914 16.642L6.1703 16.611L6.17264 16.5965V16.5854L6.1773 16.565L6.18022 16.5451L6.18314 16.5335L6.18547 16.5218L6.19597 16.4868L6.19772 16.4792L6.86855 14.4667L6.85572 14.4451C5.56655 12.2594 6.15047 9.55037 8.2633 7.95904L8.39689 7.86104Z" fill="white"/>
</g>
<defs>
<linearGradient id="paint0_linear_9487_37409" x1="24" y1="7.15256e-07" x2="-7.15256e-07" y2="24" gradientUnits="userSpaceOnUse">
<stop stop-color="#FDB022"/>
<stop offset="1" stop-color="#DC6803"/>
</linearGradient>
<clipPath id="clip0_9487_37409">
<rect width="14" height="14" fill="white" transform="translate(5 5)"/>
</clipPath>
</defs>
</svg>
