<svg width="24" height="24" viewBox="0 0 24 24" fill="none" xmlns="http://www.w3.org/2000/svg">
<rect width="24" height="24" rx="12" fill="url(#paint0_linear_9487_37380)"/>
<g clip-path="url(#clip0_9487_37380)">
<path d="M12.5846 6.75C13.031 6.74998 13.4605 6.92052 13.7853 7.22675C14.1101 7.53297 14.3055 7.95173 14.3317 8.39733L14.3346 8.5V10.8333H15.5013C15.9301 10.8333 16.344 10.9906 16.6645 11.2756C16.9849 11.5606 17.1896 11.9533 17.2396 12.3792L17.2484 12.4807L17.2513 12.5833L17.2396 12.6977L16.6528 15.633C16.4306 16.5815 15.7766 17.264 15.0136 17.2547L14.918 17.25H10.2513C10.1084 17.25 9.97052 17.1975 9.86375 17.1026C9.75698 17.0076 9.68877 16.8768 9.67205 16.7349L9.66797 16.6667L9.66855 11.104C9.66866 11.0017 9.69566 10.9012 9.74685 10.8127C9.79805 10.7241 9.87163 10.6506 9.96022 10.5994C10.209 10.4558 10.4185 10.253 10.5703 10.0092C10.7221 9.76529 10.8115 9.48779 10.8306 9.20117L10.8346 9.08333V8.5C10.8346 8.03587 11.019 7.59075 11.3472 7.26256C11.6754 6.93437 12.1205 6.75 12.5846 6.75Z" fill="white"/>
<path d="M7.91797 10.8281C8.06085 10.8281 8.19875 10.8806 8.30552 10.9755C8.41229 11.0705 8.4805 11.2013 8.49722 11.3432L8.5013 11.4115V16.6615C8.50128 16.8043 8.44883 16.9422 8.35388 17.049C8.25894 17.1558 8.12812 17.224 7.98622 17.2407L7.91797 17.2448H7.33464C7.0403 17.2449 6.7568 17.1337 6.54098 16.9336C6.32516 16.7334 6.19296 16.4591 6.17089 16.1656L6.16797 16.0781V11.9948C6.16788 11.7005 6.27904 11.417 6.47918 11.2011C6.67931 10.9853 6.95363 10.8531 7.24714 10.831L7.33464 10.8281H7.91797Z" fill="white"/>
</g>
<defs>
<linearGradient id="paint0_linear_9487_37380" x1="24" y1="7.15256e-07" x2="-7.15256e-07" y2="24" gradientUnits="userSpaceOnUse">
<stop stop-color="#2970FF"/>
<stop offset="1" stop-color="#004EEB"/>
</linearGradient>
<clipPath id="clip0_9487_37380">
<rect width="14" height="14" fill="white" transform="translate(5 5)"/>
</clipPath>
</defs>
</svg>
